<svg xmlns="http://www.w3.org/2000/svg"
     width="512"
     height="512"
     viewBox="0 0 512 512"
     fill="#c33"
     opacity=".5"
     enable-background="new 0 0 512 512">
  <path d="m256 96q44 0 80 21 37 21 58 58 21 37 21 80t-21 80q-21 37-58 58-37 21-80 21t-80-21q-37-21-58-58-21-37-21-80t21-80q21-37 58-58 37-21 80-21zm27 261v-40q0-3-2-5-2-2-5-2h-40q-3 0-5 2-2 2-2 5v40q0 3 2 5 2 2 5 2h40q3 0 5-2 2-2 2-5zm-0.4-72 4-130q0-3-2-4-2-2-5-2h-46q-3 0-5 2-2 1-2 4l4 130q0 2 2 4 2 2 5 2h39q3 0 5-2 2-2 2-4z" />
</svg>
