<svg xmlns="http://www.w3.org/2000/svg" width="352" height="512" viewBox="0 0 352 512" stroke="currentColor" fill="currentColor">
        <path
            d="m101.2 1.2464c-10.731 3.4273-18.139 9.8586-23.716 20.255l-2.8985 5.5745-0.31914 27.648c-0.42901 32.58 0.10464 35.469 8.2611 43.614 13.844 13.824 36.273 10.397 45.502-6.9643 1.9306-3.6467 2.3596-6.4314 2.684-19.613l0.429-15.219h-18.249l-0.42902 12.753c-0.21451 10.611-0.64352 13.077-2.3596 14.895-2.5741 2.9989-7.513 3.9654-11.484 2.3562-5.7969-2.466-6.3306-5.0364-6.3306-29.686 0-24.863 0.75339-28.291 7.4031-33.865 5.258-4.3938 9.9824-5.2506 25.432-4.9319 15.774 0.42841 19.64 2.0376 24.255 9.3257l2.4694 3.9654v52.517c0 56.477-0.10988 57.224-5.687 64.726-4.2954 5.7887-10.731 8.0353-22.858 8.0353-9.3389 0.10971-10.84-0.2142-16.632-3.1086-5.3679-2.7846-6.7596-4.0699-9.3336-9.216-2.5741-5.0364-3.2176-7.7166-3.6518-16.933l-0.64352-10.825-6.0114-2.6802c-3.3275-1.6092-7.6176-4.2893-9.5534-6.2172l-3.6518-3.4273 0.53888 18.218c0.32438 15.219 0.75339 19.289 2.7886 24.649 4.6145 12.753 13.524 21.217 26.939 25.825 8.0466 2.7847 28.974 2.8944 37.669 0.21421 12.661-3.9654 22.324-13.934 26.4-27.005 1.7161-6.003 1.9306-11.144 1.9306-62.798v-56.263l-3.0031-6.0029c-3.4321-7.1785-11.698-15.219-18.782-18.432-4.5099-2.142-7.0839-2.3562-23.826-2.5705-13.409-0.20898-20.064 0.10971-23.282 1.186z" />
        <path
            d="m21.142 49.468c-7.513 2.6802-14.058 9.0018-18.029 17.257l-3.113 6.4314v415.8l2.5741 5.3551c1.3969 3.1086 4.7244 7.3927 7.513 9.8586 9.4435 8.3592 1.0725 7.8211 131.14 7.8211 125.67 0 121.7 0.2142 127.92-5.679 1.5016-1.2852 19.531-20.788 40.353-43.4 24.469-26.791 38.527-42.867 40.029-46.08l2.4694-5.0364v-338.64l-3.0031-6.4314c-3.113-6.5358-9.1244-12.857-15.455-16.29-3.3275-1.8233-8.4756-1.9278-74.585-2.2518l-71.153-0.32392v15.109h66.324c41.64 0 67.716 0.42841 70.185 1.071 4.829 1.3949 10.087 7.074 11.589 12.753 0.75339 2.7847 0.96789 55.834 0.85803 165.78l-0.32438 161.71-31.658 0.53812c-35.09 0.64262-35.734 0.75233-43.895 8.0353-2.3596 2.142-5.4725 5.679-6.7596 7.8211-2.3596 3.8557-2.4694 4.8222-3.0031 39.863l-0.53889 35.903h-112.35c-111.72 0-112.36 0-115.26-2.2518-1.6114-1.1807-3.971-3.537-5.1534-5.1461l-2.2549-2.8944-0.31914-202.65c-0.10987-139.21 0.10464-203.83 0.85803-206.72 1.5015-5.679 6.7596-11.358 11.589-12.753 2.1451-0.53812 9.658-1.071 16.632-1.071h12.556v-15.005h-15.774c-10.406 0.12016-17.276 0.5538-19.96 1.5151z" />
        <path d="m48.295 215.15v7.5024h255.41v-15.005h-255.41z" />
        <path
            d="m48.4 256.3c-0.75339 0.96653-1.1824 4.1796-0.9679 8.3592l0.31914 6.75h256.49v-16.076l-127.28-0.32392c-108.82-0.20898-127.49 5e-3 -128.56 1.2904z" />
        <path d="m48.295 311.6v7.5024h255.41v-15.005h-255.41z" />
        <path d="m48.295 359.82v7.5024h255.41v-15.005h-255.41z" />
        <path d="m48.295 408.05v7.5024h143.8v-15.005h-143.8z" />
</svg>