<svg width="512" height="512" version="1.1" viewBox="0 0 512 512" xmlns="http://www.w3.org/2000/svg"><defs><linearGradient id="d" x1="1.2382" x2="665.14" y1="512.25" y2="128.94" gradientUnits="userSpaceOnUse"><stop stop-color="#600000" offset="0"/><stop stop-color="#600000" stop-opacity="0" offset="1"/></linearGradient><linearGradient id="c" x1="512" x2="-117.6" y1="1.072" y2="364.57" gradientUnits="userSpaceOnUse"><stop stop-color="#1e293b" offset="0"/><stop stop-color="#1e293b" stop-opacity="0" offset="1"/></linearGradient></defs><path d="m284.62 256c0-15.834 12.792-28.626 28.625-28.626h143.12c15.833 0 28.625 12.792 28.625 28.626v57.252c0 15.834-12.792 28.626-28.625 28.626h-143.12c-15.833 0-28.625-12.792-28.625-28.626zm-229 114.5h85.875c15.833 0 28.625 12.792 28.625 28.626v57.252c0 15.834-12.792 28.626-28.625 28.626h-85.875c-15.833 0-28.625-12.792-28.625-28.626v-57.252c0-15.834 12.792-28.626 28.625-28.626zm171.75 0h229c15.833 0 28.625 12.792 28.625 28.626v57.252c0 15.834-12.792 28.626-28.625 28.626h-229c-15.833 0-28.625-12.792-28.625-28.626v-57.252c0-15.834 12.792-28.626 28.625-28.626z" fill="url(#d)"/><path d="m242.4 31.282c8.498 5.1885 13.597 14.402 13.597 24.332v64.408h79.613c3.2203-12.345 14.402-21.47 27.73-21.47h78.719c23.705 0 42.938 19.233 42.938 42.938 0 23.706-19.232 42.938-42.938 42.938h-78.719c-13.329 0-24.51-9.1242-27.73-21.47h-79.613v64.408c0 9.9293-5.0988 19.144-13.597 24.332-8.498 5.1883-18.964 5.7252-27.82 1.2524l-171.75-85.878c-9.7504-4.8306-15.833-14.76-15.833-25.584 0-10.825 6.0828-20.754 15.833-25.584l171.75-85.878c8.8559-4.4727 19.411-3.936 27.82 1.2523z" fill="url(#c)"/></svg>
