<svg width="512" height="512" version="1.1" viewBox="0 0 512 512" xmlns="http://www.w3.org/2000/svg" xmlns:xlink="http://www.w3.org/1999/xlink"><defs><linearGradient id="f" x1="1.2382" x2="665.14" y1="512.25" y2="128.94" gradientTransform="translate(-3.4766e-6)" gradientUnits="userSpaceOnUse"><stop stop-color="#600000" offset="0"/><stop stop-color="#600000" stop-opacity="0" offset="1"/></linearGradient><linearGradient id="e" x1="512" x2="-117.6" y1="1.072" y2="364.57" gradientTransform="translate(-3.4766e-6)" gradientUnits="userSpaceOnUse"><stop stop-color="#1e293b" offset="0"/><stop stop-color="#1e293b" stop-opacity="0" offset="1"/></linearGradient></defs><path d="m278.38 256c0-12.377 9.9988-22.376 22.375-22.376h111.88c12.376 0 22.375 9.9988 22.375 22.376v44.751c0 12.377-9.9988 22.376-22.375 22.376h-111.88c-12.376 0-22.375-9.9988-22.375-22.376zm-179 89.5h67.125c12.376 0 22.375 9.9988 22.375 22.376v44.751c0 12.377-9.9988 22.376-22.375 22.376h-67.125c-12.376 0-22.375-9.9988-22.375-22.376v-44.751c0-12.377 9.9988-22.376 22.375-22.376zm134.25 0h179c12.376 0 22.375 9.9988 22.375 22.376v44.751c0 12.377-9.9988 22.376-22.375 22.376h-179c-12.376 0-22.375-9.9988-22.375-22.376v-44.751c0-12.377 9.9988-22.376 22.375-22.376z" fill="url(#f)"/><path d="m245.37 80.347c6.6426 4.0556 10.628 11.257 10.628 19.019v50.345h62.23c2.5172-9.6492 11.257-16.782 21.676-16.782h61.531c18.529 0 33.562 15.034 33.562 33.563 0 18.53-15.033 33.563-33.562 33.563h-61.531c-10.418 0-19.159-7.132-21.676-16.782h-62.23v50.345c0 7.7613-3.9856 14.964-10.628 19.019-6.6426 4.0555-14.823 4.4751-21.746 0.97891l-134.25-67.127c-7.6215-3.7759-12.376-11.537-12.376-19.998s4.7547-16.223 12.376-19.998l134.25-67.127c6.9223-3.4962 15.173-3.0766 21.746 0.9789z" fill="url(#e)"/></svg>
